<?xml version="1.0" standalone="no"?><!DOCTYPE svg PUBLIC "-//W3C//DTD SVG 1.1//EN" "http://www.w3.org/Graphics/SVG/1.1/DTD/svg11.dtd"><svg t="1619702430813" class="icon" viewBox="0 0 1024 1024" version="1.1" xmlns="http://www.w3.org/2000/svg" p-id="4132" xmlns:xlink="http://www.w3.org/1999/xlink" width="200" height="200"><defs><style type="text/css"></style></defs><path d="M516.3008 58.4192c-253.9008 0-459.7248 205.824-459.7248 459.7248s205.824 459.7248 459.7248 459.7248 459.7248-205.824 459.7248-459.7248-205.824-459.7248-459.7248-459.7248z m301.312 438.9376c-4.864 153.0368-128.5632 276.8896-281.6 281.9584-19.3536 0.6656-38.8096-0.6144-57.7024-3.7376-8.3456-1.3824-16.3328-1.024-23.6544 1.0752-19.968 5.6832-40.8064 11.8272-60.9792 17.7664-13.056 3.84-25.9584 7.68-38.5536 11.3152-3.584 1.024-7.2704 1.536-10.9056 1.536a38.98368 38.98368 0 0 1-38.912-42.1888c0.512-5.9904 1.1264-12.3392 1.792-18.8416 1.8944-18.7904 5.7856-57.856-0.3072-66.2528-49.8688-56.832-75.4688-130.048-71.936-205.9776 6.9632-150.8864 130.7648-272.896 281.8048-277.7088 81.5616-2.6624 158.1568 27.6992 215.7568 85.248 57.4976 57.6512 87.808 134.2976 85.1968 215.808z" fill="#ffaaaa" p-id="4133"></path><path d="M696.1152 317.7984c-45.6192-45.6192-105.6768-70.4512-169.9328-70.4512-2.6624 0-5.3248 0.0512-7.9872 0.1024-124.5184 3.9936-226.56 104.4992-232.2944 228.9152-2.9184 62.6688 18.176 123.0336 59.3408 169.9328 20.8384 23.7568 16.6912 65.024 12.6976 104.96v0.256c7.0144-2.048 14.08-4.1472 21.1968-6.2464 20.2752-5.9904 41.2672-12.1856 61.5424-17.92 14.6432-4.1472 30.1056-4.9152 45.9264-2.304 15.616 2.56 31.6416 3.6352 47.6672 3.072 126.1568-4.1984 228.096-106.2912 232.1408-232.448 2.1504-67.1744-22.8352-130.3552-70.2976-177.8688z m-170.0352 296.96c-64.8704 0-117.6576-52.7872-117.6576-117.6576 0-14.1312 11.4688-25.6 25.6-25.6s25.6 11.4688 25.6 25.6c0 36.6592 29.7984 66.4576 66.4576 66.4576s66.4576-29.7984 66.4576-66.4576c0-14.1312 11.4688-25.6 25.6-25.6s25.6 11.4688 25.6 25.6c0.0512 64.8704-52.7872 117.6576-117.6576 117.6576z" fill="#ffaaaa" p-id="4134"></path></svg>